<svg width="1552" height="666" viewBox="0 0 1552 666" fill="none" xmlns="http://www.w3.org/2000/svg">
<path d="M1399.2 2.85H1396.97V5.1H1396.32V2.85H1394.1V2.25H1396.32V0H1396.97V2.25H1399.2V2.85Z" fill="white"/>
<path d="M1471.1 664.676H1469.79V666H1469.4V664.676H1468.1V664.324H1469.4V663H1469.79V664.324H1471.1V664.676Z" fill="white"/>
<path d="M810.197 17.85H807.967V20.1H807.317V17.85H805.097V17.25H807.317V15H807.967V17.25H810.197V17.85Z" fill="white"/>
<path d="M414.197 513.85H411.967V516.1H411.317V513.85H409.097V513.25H411.317V511H411.967V513.25H414.197V513.85Z" fill="white"/>
<path d="M3.09668 248.676H1.78492V250H1.40256V248.676H0.0966797V248.324H1.40256V247H1.78492V248.324H3.09668V248.676Z" fill="white"/>
<path d="M27.1967 257.85H24.9667V260.1H24.3167V257.85H22.0967V257.25H24.3167V255H24.9667V257.25H27.1967V257.85Z" fill="#FDD446"/>
<path d="M542.097 566.912H539.036V570H538.144V566.912H535.097V566.088H538.144V563H539.036V566.088H542.097V566.912Z" fill="#FDD446"/>
<path d="M234.097 641.676H232.785V643H232.403V641.676H231.097V641.324H232.403V640H232.785V641.324H234.097V641.676Z" fill="white"/>
<path d="M202.197 661.85H199.967V664.1H199.317V661.85H197.097V661.25H199.317V659H199.967V661.25H202.197V661.85Z" fill="white"/>
<path d="M686.197 388.85H683.967V391.1H683.317V388.85H681.097V388.25H683.317V386H683.967V388.25H686.197V388.85Z" fill="#FDD346"/>
<path d="M1551.2 161.85H1548.97V164.1H1548.32V161.85H1546.1V161.25H1548.32V159H1548.97V161.25H1551.2V161.85Z" fill="#FDD346"/>
<path d="M700.197 241.85H697.967V244.1H697.317V241.85H695.097V241.25H697.317V239H697.967V241.25H700.197V241.85Z" fill="white"/>
<path d="M440.197 74.85H437.967V77.1H437.317V74.85H435.097V74.25H437.317V72H437.967V74.25H440.197V74.85Z" fill="white"/>
<path d="M186.197 69.85H183.967V72.1H183.317V69.85H181.097V69.25H183.317V67H183.967V69.25H186.197V69.85Z" fill="white"/>
</svg>
