<svg width="1552" height="747" viewBox="0 0 1552 747" fill="none" xmlns="http://www.w3.org/2000/svg">
<g opacity="0.5">
<path d="M1399.1 2.85H1396.87V5.1H1396.22V2.85H1394V2.25H1396.22V0H1396.87V2.25H1399.1V2.85Z" fill="white"/>
<path d="M1471 664.676H1469.69V666H1469.31V664.676H1468V664.324H1469.31V663H1469.69V664.324H1471V664.676Z" fill="white"/>
<path d="M1418.1 743.85H1415.87V746.1H1415.22V743.85H1413V743.25H1415.22V741H1415.87V743.25H1418.1V743.85Z" fill="white"/>
<path d="M810.1 17.85H807.87V20.1H807.22V17.85H805V17.25H807.22V15H807.87V17.25H810.1V17.85Z" fill="white"/>
<path d="M414.1 513.85H411.87V516.1H411.22V513.85H409V513.25H411.22V511H411.87V513.25H414.1V513.85Z" fill="white"/>
<path d="M3 248.676H1.68824V250H1.30588V248.676H0V248.324H1.30588V247H1.68824V248.324H3V248.676Z" fill="white"/>
<path d="M27.1 257.85H24.87V260.1H24.22V257.85H22V257.25H24.22V255H24.87V257.25H27.1V257.85Z" fill="#FDD446"/>
<path d="M542 566.912H538.939V570H538.047V566.912H535V566.088H538.047V563H538.939V566.088H542V566.912Z" fill="#FDD446"/>
<path d="M234 641.676H232.688V643H232.306V641.676H231V641.324H232.306V640H232.688V641.324H234V641.676Z" fill="white"/>
<path d="M202.1 661.85H199.87V664.1H199.22V661.85H197V661.25H199.22V659H199.87V661.25H202.1V661.85Z" fill="white"/>
<path d="M582.1 260.85H579.87V263.1H579.22V260.85H577V260.25H579.22V258H579.87V260.25H582.1V260.85Z" fill="white"/>
<path d="M686.1 368.85H683.87V371.1H683.22V368.85H681V368.25H683.22V366H683.87V368.25H686.1V368.85Z" fill="#FDD346"/>
<path d="M1551.1 161.85H1548.87V164.1H1548.22V161.85H1546V161.25H1548.22V159H1548.87V161.25H1551.1V161.85Z" fill="#FDD346"/>
<path d="M700.1 221.85H697.87V224.1H697.22V221.85H695V221.25H697.22V219H697.87V221.25H700.1V221.85Z" fill="white"/>
<path d="M440.1 74.85H437.87V77.1H437.22V74.85H435V74.25H437.22V72H437.87V74.25H440.1V74.85Z" fill="white"/>
<path d="M186.1 69.85H183.87V72.1H183.22V69.85H181V69.25H183.22V67H183.87V69.25H186.1V69.85Z" fill="white"/>
</g>
</svg>
