<svg width="1728" height="109" viewBox="0 0 1728 109" fill="none" xmlns="http://www.w3.org/2000/svg">
<path fill-rule="evenodd" clip-rule="evenodd" d="M1070.43 95.2542C701.232 108.445 261.918 109.769 -30 106.935L-29.8058 86.9361C261.943 89.7686 700.929 88.4429 1069.71 75.267C1254.14 68.6777 1420.8 59.1314 1542.66 45.6896C1603.64 38.9625 1653.05 31.2967 1687.74 22.6364C1705.14 18.2936 1718.36 13.8149 1727.37 9.31346C1731.87 7.06552 1734.96 4.98367 1736.94 3.17854C1738.94 1.36248 1739.33 0.264124 1739.4 0L1758.8 4.87118C1757.46 10.1821 1754.21 14.5059 1750.41 17.963C1746.61 21.431 1741.77 24.4733 1736.31 27.2042C1725.39 32.6605 1710.54 37.5583 1692.59 42.041C1656.57 51.0318 1606.1 58.8129 1544.85 65.569C1422.24 79.0939 1254.99 88.6602 1070.43 95.2542Z" fill="#D9E0EA"/>
</svg>
