<svg width="40" height="40" viewBox="0 0 40 40" fill="none" xmlns="http://www.w3.org/2000/svg">
<circle cx="20" cy="20" r="17" stroke="#D2B863" stroke-width="4"/>
<path d="M14.179 28V25.7841L19.3565 20.9901C19.7969 20.5639 20.1662 20.1804 20.4645 19.8395C20.7675 19.4986 20.9972 19.1648 21.1534 18.8381C21.3097 18.5066 21.3878 18.1491 21.3878 17.7656C21.3878 17.3395 21.2907 16.9725 21.0966 16.6648C20.9025 16.3523 20.6373 16.1132 20.3011 15.9474C19.965 15.777 19.5838 15.6918 19.1577 15.6918C18.7126 15.6918 18.3243 15.7817 17.9929 15.9616C17.6615 16.1416 17.4058 16.3996 17.2259 16.7358C17.0459 17.072 16.956 17.4721 16.956 17.9361H14.0369C14.0369 16.9844 14.2524 16.1581 14.6832 15.4574C15.1141 14.7566 15.7178 14.2145 16.4943 13.831C17.2708 13.4474 18.1657 13.2557 19.179 13.2557C20.2206 13.2557 21.1274 13.4403 21.8991 13.8097C22.6757 14.1742 23.2794 14.6809 23.7102 15.3295C24.1411 15.9782 24.3565 16.7216 24.3565 17.5597C24.3565 18.1089 24.2476 18.651 24.0298 19.1861C23.8168 19.7211 23.4356 20.3153 22.8864 20.9688C22.3371 21.6174 21.563 22.3963 20.5639 23.3054L18.4403 25.3864V25.4858H24.5483V28H14.179Z" fill="#D2B863"/>
</svg>
