<svg width="40" height="40" viewBox="0 0 40 40" fill="none" xmlns="http://www.w3.org/2000/svg">
<circle cx="20" cy="20" r="17" stroke="#D2B863" stroke-width="4"/>
<path d="M19.5554 28.1989C18.4948 28.1989 17.5502 28.0166 16.7216 27.652C15.8977 27.2827 15.2467 26.776 14.7685 26.1321C14.295 25.4834 14.0511 24.7353 14.0369 23.8878H17.1335C17.1525 24.2429 17.2685 24.5554 17.4815 24.8253C17.6993 25.0904 17.9882 25.2964 18.348 25.4432C18.7079 25.59 19.1127 25.6634 19.5625 25.6634C20.0312 25.6634 20.4455 25.5805 20.8054 25.4148C21.1652 25.2491 21.447 25.0194 21.6506 24.7259C21.8542 24.4323 21.956 24.0937 21.956 23.7102C21.956 23.322 21.8471 22.9787 21.6293 22.6804C21.4162 22.3774 21.1084 22.1406 20.706 21.9702C20.3082 21.7997 19.8348 21.7145 19.2855 21.7145H17.929V19.456H19.2855C19.7495 19.456 20.1591 19.3755 20.5142 19.2145C20.8741 19.0535 21.1534 18.831 21.3523 18.5469C21.5511 18.258 21.6506 17.9219 21.6506 17.5384C21.6506 17.1738 21.563 16.8542 21.3878 16.5795C21.2173 16.3002 20.9759 16.0824 20.6634 15.9261C20.3556 15.7699 19.9957 15.6918 19.5838 15.6918C19.1671 15.6918 18.786 15.7675 18.4403 15.919C18.0947 16.0658 17.8177 16.2765 17.6094 16.5511C17.401 16.8258 17.2898 17.1477 17.2756 17.517H14.3281C14.3423 16.679 14.5814 15.9403 15.0455 15.3011C15.5095 14.6619 16.1345 14.1624 16.9205 13.8026C17.7112 13.438 18.6037 13.2557 19.598 13.2557C20.6018 13.2557 21.4801 13.438 22.233 13.8026C22.9858 14.1671 23.5705 14.6596 23.9872 15.2798C24.4086 15.8954 24.617 16.5866 24.6122 17.3537C24.617 18.1681 24.3636 18.8475 23.8523 19.392C23.3456 19.9366 22.6851 20.2822 21.8707 20.429V20.5426C22.9408 20.6799 23.7552 21.0516 24.3139 21.6577C24.8774 22.259 25.1567 23.0118 25.152 23.9162C25.1567 24.7448 24.9176 25.4811 24.4347 26.125C23.9564 26.7689 23.2959 27.2756 22.4531 27.6449C21.6103 28.0142 20.6444 28.1989 19.5554 28.1989Z" fill="#D2B863"/>
</svg>
